<svg xmlns="http://www.w3.org/2000/svg" width="100" height="106"><g fill="#000000"><rect width="20" height="26"/><rect width="20" height="26" x="20"/><rect width="20" height="26" fill="#009245" x="40"/><rect width="20" height="26" fill="#009245" x="60"/><rect width="20" height="26" x="80"/><rect width="20" height="26" y="26"/><rect width="20" height="26" fill="#009245" x="20" y="26"/><rect width="20" height="26" x="40" y="26"/><rect width="20" height="26" x="60" y="26"/><rect width="20" height="26" fill="#009245" x="80" y="26"/><rect width="20" height="26" fill="#bf8c30" y="52"/><rect width="20" height="26" fill="#bf8c30" x="20" y="52"/><rect width="20" height="26" fill="#bf8c30" x="40" y="52"/><rect width="20" height="26" fill="#bf8c30" x="60" y="52"/><rect width="20" height="26" fill="#b0812d" x="80" y="52"/><rect width="20" height="26" fill="#bf8c30" y="78"/><rect width="20" height="26" fill="#bf8c30" x="20" y="78"/><rect width="20" height="26" fill="#bf8c30" x="40" y="78"/><rect width="20" height="26" fill="#bf8c30" x="60" y="78"/><rect width="20" height="26" fill="#b0812d" x="80" y="78"/></g></svg>