<svg xmlns="http://www.w3.org/2000/svg" width="62" height="66"><g fill="#000000"><rect width="12" height="13"/><rect width="12" height="13" x="12"/><rect width="12" height="13" fill="#009245" x="24"/><rect width="12" height="13" x="36"/><rect width="12" height="13" fill="#009245" x="48"/><rect width="12" height="13" y="13"/><rect width="12" height="13" fill="#009245" x="12" y="13"/><rect width="12" height="13" fill="#009245" x="24" y="13"/><rect width="12" height="13" fill="#009245" x="36" y="13"/><rect width="12" height="13" fill="#009245" x="48" y="13"/><rect width="12" height="13" fill="#bf8c30" y="26"/><rect width="12" height="13" fill="#bb8c30" x="12" y="26"/><rect width="12" height="13" fill="#a58d33" x="24" y="26"/><rect width="12" height="13" fill="#6b8e39" x="36" y="26"/><rect width="12" height="13" fill="#40903e" x="48" y="26"/><rect width="12" height="13" fill="#bf8c30" y="39"/><rect width="12" height="13" fill="#bf8c30" x="12" y="39"/><rect width="12" height="13" fill="#bf8c30" x="24" y="39"/><rect width="12" height="13" fill="#bf8c30" x="36" y="39"/><rect width="12" height="13" fill="#bf8c30" x="48" y="39"/><rect width="12" height="13" fill="#bf8c30" y="52"/><rect width="12" height="13" fill="#bf8c30" x="12" y="52"/><rect width="12" height="13" fill="#bf8c30" x="24" y="52"/><rect width="12" height="13" fill="#bf8c30" x="36" y="52"/><rect width="12" height="13" fill="#bf8c30" x="48" y="52"/></g></svg>